<?xml version="1.0" standalone="no"?>
<!DOCTYPE svg PUBLIC "-//W3C//DTD SVG 20010904//EN"
 "http://www.w3.org/TR/2001/REC-SVG-20010904/DTD/svg10.dtd">
<svg version="1.0" xmlns="http://www.w3.org/2000/svg"
 width="16.000000pt" height="16.000000pt" viewBox="0 0 16.000000 16.000000"
 preserveAspectRatio="xMidYMid meet">
<metadata>
Created by potrace 1.11, written by Peter Selinger 2001-2013
</metadata>
<g transform="translate(0.000000,16.000000) scale(0.005882,-0.005882)"
fill="#000000" stroke="none">
<path d="M390 2678 c24 -27 45 -48 47 -48 8 0 0 9 -44 50 l-48 45 45 -47z"/>
<path d="M1133 2212 l507 -507 0 -58 0 -57 -83 0 c-108 0 -124 14 -129 110 -3
59 -5 66 -31 80 -27 14 -29 14 -51 -12 -22 -25 -25 -25 -42 -10 -10 10 -9 5 4
-9 18 -21 22 -37 22 -92 l0 -67 -78 0 c-106 0 -111 -5 -114 -110 l-3 -85 -73
3 c-84 3 -122 -13 -122 -51 0 -39 19 -47 107 -47 l83 0 0 -110 0 -110 -27 0
c-23 0 -116 88 -565 537 l-538 538 0 -145 1 -145 544 -550 544 -550 -65 -5
c-63 -5 -83 -16 -84 -47 0 -31 31 -43 116 -43 l84 0 0 -83 c0 -51 5 -88 12
-95 7 -7 44 -12 95 -12 l83 0 0 -83 c0 -69 3 -87 18 -100 22 -20 46 -22 60 -4
6 7 12 51 14 97 l3 85 113 3 112 3 0 -85 c0 -86 12 -116 45 -116 33 0 45 30
45 116 l0 85 113 -3 112 -3 3 -85 c3 -87 12 -110 43 -110 37 0 49 27 49 116
l0 84 83 0 c51 0 88 5 95 12 7 7 12 44 12 95 l0 83 84 0 c86 0 116 12 116 45
0 33 -30 45 -116 45 l-85 0 3 113 3 112 85 3 c86 3 110 12 110 42 0 36 -32 50
-118 50 l-82 0 0 110 0 110 84 0 c64 0 88 4 100 16 19 18 20 28 6 55 -9 17
-22 19 -100 19 l-90 0 0 90 c0 107 -3 110 -114 110 l-76 0 0 79 c0 84 -12 111
-49 111 -26 0 -39 -19 -43 -63 l-3 -38 -520 520 -519 521 -151 0 -150 0 508
-508z m317 -607 c10 -12 10 -15 -4 -15 -9 0 -16 7 -16 15 0 8 2 15 4 15 2 0 9
-7 16 -15z m710 -315 l0 -210 -137 0 c-155 0 -238 11 -319 41 l-55 21 6 38
c19 110 -106 189 -203 130 -34 -21 -62 -72 -62 -112 0 -71 74 -132 150 -125
33 4 56 -1 90 -18 88 -45 155 -57 348 -62 l182 -5 0 -209 0 -209 -465 0 -465
0 0 458 c0 252 3 462 7 465 3 4 213 7 465 7 l458 0 0 -210z"/>
<path d="M590 2478 c125 -128 140 -143 140 -135 0 1 -62 63 -137 137 l-138
135 135 -137z"/>
<path d="M905 2160 c88 -88 162 -160 165 -160 3 0 -67 72 -155 160 -88 88
-162 160 -165 160 -3 0 67 -72 155 -160z"/>
<path d="M1145 1920 c33 -33 62 -60 64 -60 3 0 -21 27 -54 60 -33 33 -62 60
-64 60 -3 0 21 -27 54 -60z"/>
<path d="M1220 1836 c0 -2 8 -10 18 -17 15 -13 16 -12 3 4 -13 16 -21 21 -21
13z"/>
</g>
</svg>
